{"title":"The Expendables 3 2014 Movies PDVDRip x264 AC3 +Sample ~ â˜»rDXâ˜»","uid":10633475,"size":753940231,"categoryP":"video","categoryS":"movies","magnet":"?xt=urn:btih:f167baed4f82dd6c3976a3bf888cc78c0c14109d&amp;dn=The+Expendables+3+2014+Movies+PDVDRip+x264+AC3+%2BSample+%7E+%E2%98%BBrDX%E2%98%BB&amp;tr=udp%3A%2F%2Ftracker.openbittorrent.com%3A80&amp;tr=udp%3A%2F%2Fopen.demonii.com%3A1337&amp;tr=udp%3A%2F%2Ftracker.coppersurfer.tk%3A6969&amp;tr=udp%3A%2F%2Fexodus.desync.com%3A6969","seeders":10,"leechers":5,"uploader":"basicssom","files":2,"time":1406354055,"description":"----------------------------------------------------------------\nThe Expendables 3 2014 English Movies PDVDRip x264 AC3 with Sample ~ â˜»rDXâ˜»\n\nPOSTER:\n &lt;a href=&quot;\nhttp://istoreimg.com/upload/big/2014/07/26/53d3256e63baa.jpg&quot; rel=&quot;nofollow&quot; target=&quot;_NEW&quot;&gt;\nhttp://istoreimg.com/upload/big/2014/07/26/53d3256e63baa.jpg&lt;/a&gt;\n\nSCREEN SHOTS :\n &lt;a href=&quot;\nhttp://planethost.co.nr/7/TheExpendables3/1.html&quot; rel=&quot;nofollow&quot; target=&quot;_NEW&quot;&gt;\nhttp://planethost.co.nr/7/TheExpendables3/1.html&lt;/a&gt; &lt;a href=&quot;\nhttp://planethost.co.nr/7/TheExpendables3/2.html&quot; rel=&quot;nofollow&quot; target=&quot;_NEW&quot;&gt;\nhttp://planethost.co.nr/7/TheExpendables3/2.html&lt;/a&gt; &lt;a href=&quot;\nhttp://planethost.co.nr/7/TheExpendables3/3.html&quot; rel=&quot;nofollow&quot; target=&quot;_NEW&quot;&gt;\nhttp://planethost.co.nr/7/TheExpendables3/3.html&lt;/a&gt; &lt;a href=&quot;\nhttp://planethost.co.nr/7/TheExpendables3/4.html&quot; rel=&quot;nofollow&quot; target=&quot;_NEW&quot;&gt;\nhttp://planethost.co.nr/7/TheExpendables3/4.html&lt;/a&gt; &lt;a href=&quot;\nhttp://planethost.co.nr/7/TheExpendables3/5.html&quot; rel=&quot;nofollow&quot; target=&quot;_NEW&quot;&gt;\nhttp://planethost.co.nr/7/TheExpendables3/5.html&lt;/a&gt; &lt;a href=&quot;\nhttp://planethost.co.nr/7/TheExpendables3/6.html&quot; rel=&quot;nofollow&quot; target=&quot;_NEW&quot;&gt;\nhttp://planethost.co.nr/7/TheExpendables3/6.html&lt;/a&gt; &lt;a href=&quot;\nhttp://planethost.co.nr/7/TheExpendables3/7.html&quot; rel=&quot;nofollow&quot; target=&quot;_NEW&quot;&gt;\nhttp://planethost.co.nr/7/TheExpendables3/7.html&lt;/a&gt; &lt;a href=&quot;\nhttp://planethost.co.nr/7/TheExpendables3/8.html&quot; rel=&quot;nofollow&quot; target=&quot;_NEW&quot;&gt;\nhttp://planethost.co.nr/7/TheExpendables3/8.html&lt;/a&gt; &lt;a href=&quot;\nhttp://planethost.co.nr/7/TheExpendables3/9.html&quot; rel=&quot;nofollow&quot; target=&quot;_NEW&quot;&gt;\nhttp://planethost.co.nr/7/TheExpendables3/9.html&lt;/a&gt; &lt;a href=&quot;\nhttp://planethost.co.nr/7/TheExpendables3/10.html&quot; rel=&quot;nofollow&quot; target=&quot;_NEW&quot;&gt;\nhttp://planethost.co.nr/7/TheExpendables3/10.html&lt;/a&gt;\n\nFormat                                   : Matroska\nFormat version                           : Version 4 / Version 2\nFile size                                : 714 MiB\nOverall bit rate mode                    : Variable\nOverall bit rate                         : 862 Kbps\nMovie name                               : The Expendables 3 2014 English Movies PDVDRip x264 AC3 ~  rDX ~\n\nVideo\nID                                       : 1\nFormat                                   : AVC\nFormat/Info                              : Advanced Video Codec\nFormat profile                           : &lt;a class=&quot;__cf_email__&quot; href=&quot;/cdn-cgi/l/email-protection&quot; data-cfemail=&quot;c880a1afa08884fce6f8&quot;&gt;[email&amp;#160;protected]&lt;/a&gt;&lt;script cf-hash='f9e31' type=&quot;text/javascript&quot;&gt;\n/* &lt;![CDATA[ */!function(){try{var t=&quot;currentScript&quot;in document?document.currentScript:function(){for(var t=document.getElementsByTagName(&quot;script&quot;),e=t.length;e--;)if(t[e].getAttribute(&quot;cf-hash&quot;))return t[e]}();if(t&amp;&amp;t.previousSibling){var e,r,n,i,c=t.previousSibling,a=c.getAttribute(&quot;data-cfemail&quot;);if(a){for(e=&quot;&quot;,r=parseInt(a.substr(0,2),16),n=2;a.length-n;n+=2)i=parseInt(a.substr(n,2),16)^r,e+=String.fromCharCode(i);e=document.createTextNode(e),c.parentNode.replaceChild(e,c)}}}catch(u){}}();/* ]]&gt; */&lt;/script&gt;\nFormat settings, CABAC                   : Yes\nFormat settings, ReFrames                : 2 frames\nCodec ID                                 : V_MPEG4/ISO/AVC\nBit rate mode                            : Variable\nBit rate                                 : 653 Kbps\nMaximum bit rate                         : 768 Kbps\nWidth                                    : 720 pixels\nHeight                                   : 304 pixels\nDisplay aspect ratio                     : 2.35:1\nFrame rate mode                          : Constant\nFrame rate                               : 23.976 fps\nColor space                              : YUV\nChroma subsampling                       : 4:2:0\nBit depth                                : 8 bits\nScan type                                : Progressive\nBits/(Pixel*Frame)                       : 0.124\nStream size                              : 541 MiB (76%)\nTitle                                    : ~  rDX ~\nLanguage                                 : English\nDefault                                  : Yes\nForced                                   : No\n\nAudio\nID                                       : 2\nFormat                                   : AC-3\nFormat/Info                              : Audio Coding 3\nMode extension                           : CM (complete main)\nFormat settings, Endianness              : Big\nCodec ID                                 : A_AC3\nBit rate mode                            : Constant\nBit rate                                 : 192 Kbps\nChannel(s)                               : 2 channels\nChannel positions                        : Front: L R\nSampling rate                            : 44.1 KHz\nBit depth                                : 16 bits\nCompression mode                         : Lossy\nStream size                              : 159 MiB (22%)\nTitle                                    : ~  rDX ~\nLanguage                                 : English\nDefault                                  : Yes\nForced                                   : No","torrent":{"xt":"urn:btih:f167baed4f82dd6c3976a3bf888cc78c0c14109d","amp;dn":"The+Expendables+3+2014+Movies+PDVDRip+x264+AC3+%2BSample+%7E+%E2%98%BBrDX%E2%98%BB","amp;tr":["udp%3A%2F%2Ftracker.openbittorrent.com%3A80","udp%3A%2F%2Fopen.demonii.com%3A1337","udp%3A%2F%2Ftracker.coppersurfer.tk%3A6969","udp%3A%2F%2Fexodus.desync.com%3A6969"],"infoHash":"f167baed4f82dd6c3976a3bf888cc78c0c14109d","infoHashBuffer":{"type":"Buffer","data":[241,103,186,237,79,130,221,108,57,118,163,191,136,140,199,140,12,20,16,157]},"announce":[],"urlList":[]}}